<svg id="Calque_1" data-name="Calque 1" xmlns="http://www.w3.org/2000/svg" viewBox="0 0 412.67 207.67"><defs><style>.cls-1{fill:#333;}.cls-2{fill:#fff;}</style></defs><title>00_projet_logo</title><path class="cls-1" d="M376.28.67H308.06l-15.3,82.25q-2.55,12.1-4.3,24.54t-3.35,23.91h-1.28q-1.59-11.48-3.34-23.91t-4.31-24.54l-8.1-41.82-6,36.33-.34,2.06-6.42,38.63-6.6,39.71,10.93,50h45.9l19.76-90.53q2.88-16.26,5.74-32.51t5.74-32.52H338q1.61,16.26,3.51,32.52T345,117.34l11.47,90.53h56.11Z"/><path class="cls-2" d="M258.62.45l0,.22L246.26,74.82l-.34,2.05L239.5,115.5l-15.31,92.15H208.63l0,.22H156.32l0-.22H154.7l-15.94-82.24q-2.55-12.1-4.3-24.54T131.11,77h-1.27q-1.6,11.48-3.35,23.91t-4.3,24.54l-15.31,82.24H38.67L15.73,76.87l-13-74.4-.35-2h56.1L69.91,91q1.59,16.26,3.5,32.52T76.92,156H78.2l5.73-32.51Q86.81,107.24,89.67,91L93.18,74.9,109.44.45h45.9l.43,2L175.1,91c.11.61.22,1.22.34,1.84h0q2.7,14.74,5.4,30.19,2.86,16.42,5.74,33h1.27q1.59-16.56,3.51-32.83T194.87,91l1.79-14.11L206.31.67l0-.22Z"/></svg>