<?xml version="1.0" encoding="utf-8"?>
<!-- Generator: Adobe Illustrator 22.0.1, SVG Export Plug-In . SVG Version: 6.00 Build 0)  -->
<svg version="1.1" id="microsoft" xmlns:svg="http://www.w3.org/2000/svg"
	 xmlns="http://www.w3.org/2000/svg" xmlns:xlink="http://www.w3.org/1999/xlink" x="0px" y="0px" viewBox="0 0 377.5 76.1"
	 style="enable-background:new 0 0 377.5 76.1;" xml:space="preserve">
<style type="text/css">
	.st0{fill:#777777;}
	.st1{fill:#F35325;}
	.st2{fill:#81BC06;}
	.st3{fill:#05A6F0;}
	.st4{fill:#FFBA08;}
</style>
<path id="microsoft_1_" class="st0" d="M137.4,15.2l-13.8,33.9l-13.4-33.9H98.9v45.6h7.4V25.7h0.3l14.1,35.1h5.6l13.9-35.1h0.3v35.1
	h7.8V15.2H137.4z M207.7,33.7c2.5,0,5,0.9,7.3,2.5l0.3,0.2v-7.4l-0.1-0.1c-0.9-0.5-2.1-0.9-3.5-1.2c-1.5-0.3-2.9-0.5-4.3-0.5
	c-3.5,0-6.7,0.8-9.3,2.3c-2.7,1.5-4.8,3.6-6.2,6.3c-1.4,2.7-2.1,5.9-2.1,9.4c0,3.1,0.7,5.9,2.1,8.4c1.4,2.5,3.3,4.5,5.8,5.8
	c2.5,1.3,5.3,2,8.4,2c3.7,0,6.8-0.7,9.3-2.2l0.1-0.1v-7l-0.3,0.2c-1.1,0.8-2.4,1.5-3.8,2c-1.4,0.5-2.6,0.7-3.7,0.7
	c-3,0-5.4-1-7.2-2.8c-1.8-1.9-2.7-4.5-2.7-7.8c0-3.3,0.9-6,2.8-8C202.3,34.7,204.7,33.7,207.7,33.7z M240,28c-0.7-0.3-1.7-0.5-3-0.5
	c-1.9,0-3.7,0.6-5.1,1.8c-1.3,1.1-2.2,2.5-3,4.4h-0.1v-5.7h-7.7v32.7h7.7V44.1c0-2.9,0.7-5.2,1.9-6.9c1.3-1.8,2.9-2.6,5-2.6
	c0.7,0,1.5,0.1,2.3,0.3c0.8,0.2,1.4,0.5,1.8,0.7l0.3,0.2v-7.8L240,28z M269.9,31.9c-2.9-3-6.9-4.5-12-4.5c-5.4,0-9.7,1.6-12.7,4.7
	c-3.1,3.1-4.6,7.4-4.6,12.8c0,5.1,1.5,9.2,4.5,12.2c3,3,7,4.5,12,4.5c5.2,0,9.4-1.6,12.5-4.8c3-3.2,4.6-7.4,4.6-12.7
	C274.2,39,272.7,34.8,269.9,31.9z M264,52.5c-1.4,1.8-3.6,2.7-6.5,2.7c-2.8,0-5.1-0.9-6.6-2.8c-1.6-1.9-2.4-4.5-2.4-7.9
	c0-3.5,0.8-6.2,2.4-8.1c1.6-1.9,3.8-2.8,6.6-2.8c2.7,0,4.8,0.9,6.4,2.7c1.5,1.8,2.3,4.5,2.3,8C266.2,48,265.5,50.7,264,52.5z
	 M297.7,45.8c-1.3-1.5-3.4-2.9-6.5-4.1c-2.4-1-4-1.8-4.6-2.4c-0.6-0.6-0.9-1.4-0.9-2.5c0-1,0.4-1.7,1.2-2.3c0.8-0.6,1.9-0.9,3.3-0.9
	c1.3,0,2.6,0.2,3.9,0.6c1.3,0.4,2.5,0.9,3.4,1.6l0.3,0.2v-7.1l-0.1-0.1c-0.9-0.4-2.1-0.7-3.5-1c-1.4-0.3-2.7-0.4-3.8-0.4
	c-3.7,0-6.7,0.9-9,2.8c-2.3,1.9-3.5,4.3-3.5,7.3c0,1.5,0.3,2.9,0.8,4c0.5,1.2,1.3,2.2,2.3,3c1,0.9,2.6,1.7,4.7,2.7
	c1.8,0.7,3.1,1.3,3.9,1.8c0.8,0.5,1.4,1,1.7,1.4c0.3,0.5,0.5,1.1,0.5,1.9c0,2.2-1.6,3.3-5,3.3c-1.3,0-2.7-0.3-4.3-0.8
	c-1.6-0.5-3-1.3-4.3-2.2l-0.3-0.2v7.5l0.1,0.1c1.1,0.5,2.5,0.9,4.1,1.3c1.6,0.3,3.1,0.5,4.4,0.5c4,0,7.2-0.9,9.5-2.8
	c2.4-1.9,3.6-4.4,3.6-7.4C299.6,49.2,298.9,47.3,297.7,45.8z M332.2,31.9c-2.9-3-6.9-4.5-12-4.5c-5.4,0-9.7,1.6-12.7,4.7
	c-3,3.1-4.6,7.4-4.6,12.8c0,5.1,1.5,9.2,4.5,12.2c3,3,7,4.5,12,4.5c5.2,0,9.4-1.6,12.5-4.8c3-3.2,4.6-7.4,4.6-12.7
	C336.5,39,335.1,34.8,332.2,31.9z M326.4,52.5c-1.5,1.8-3.6,2.7-6.5,2.7c-2.8,0-5.1-0.9-6.6-2.8c-1.6-1.9-2.4-4.5-2.4-7.9
	c0-3.5,0.8-6.2,2.4-8.1c1.6-1.9,3.8-2.8,6.6-2.8c2.7,0,4.8,0.9,6.4,2.7c1.5,1.8,2.3,4.5,2.3,8C328.6,48,327.8,50.7,326.4,52.5z
	 M377.5,34.4v-6.3h-7.8v-9.8l-0.3,0.1l-7.3,2.2l-0.1,0v7.4h-11.5V24c0-1.9,0.4-3.4,1.3-4.3c0.8-1,2-1.5,3.6-1.5
	c1.1,0,2.2,0.3,3.4,0.8l0.3,0.1v-6.6l-0.1,0c-1.1-0.4-2.5-0.6-4.3-0.6c-2.3,0-4.3,0.5-6.1,1.5c-1.8,1-3.2,2.4-4.2,4.2
	c-1,1.8-1.5,3.8-1.5,6.1v4.5h-5.4v6.3h5.4v26.4h7.8V34.4H362v16.8c0,6.9,3.3,10.4,9.7,10.4c1.1,0,2.2-0.1,3.3-0.4
	c1.2-0.3,1.9-0.5,2.4-0.8l0.1-0.1v-6.3l-0.3,0.2c-0.4,0.3-1,0.5-1.6,0.7s-1.1,0.3-1.5,0.3c-1.5,0-2.6-0.4-3.3-1.2
	c-0.7-0.8-1-2.2-1-4.2V34.4H377.5z M162.7,37.2l-7.7-1.4c0.9-3.1,2.3-5.4,4.5-6.9c2.1-1.5,5.2-2.2,9.4-2.2c3.8,0,6.6,0.4,8.4,1.3
	c1.8,0.9,3.1,2,3.9,3.4s1.1,3.9,1.1,7.6l-0.1,9.9c0,2.8,0.1,4.9,0.4,6.2c0.3,1.3,0.8,2.8,1.5,4.3h-8.4c-0.2-0.6-0.5-1.4-0.8-2.5
	c-0.1-0.5-0.2-0.8-0.3-1c-1.4,1.4-3,2.5-4.6,3.2s-3.4,1.1-5.3,1.1c-3.3,0-5.9-0.9-7.8-2.7s-2.8-4-2.8-6.8c0-1.8,0.4-3.4,1.3-4.8
	c0.9-1.4,2.1-2.5,3.6-3.3c1.6-0.8,3.8-1.4,6.7-2c4-0.7,6.7-1.4,8.2-2.1v-0.8c0-1.6-0.4-2.8-1.2-3.5c-0.8-0.7-2.3-1-4.5-1
	c-1.5,0-2.7,0.3-3.5,0.9C163.9,34.7,163.2,35.8,162.7,37.2z M174,44.1c-1.1,0.4-2.8,0.8-5.2,1.3c-2.3,0.5-3.9,1-4.6,1.5
	c-1.1,0.8-1.7,1.8-1.7,3c0,1.2,0.4,2.2,1.3,3.1s2,1.3,3.4,1.3c1.5,0,3-0.5,4.4-1.5c1-0.8,1.7-1.7,2-2.8c0.2-0.7,0.3-2.1,0.3-4.1
	V44.1z"/>
<path id="red" class="st1" d="M39.9,39.9h36.2v36.2H39.9L39.9,39.9L39.9,39.9z"/>
<path id="green" class="st2" d="M0,39.9h36.2v36.2H0C0,76.1,0,39.9,0,39.9z"/>
<path id="blue" class="st3" d="M39.9,0h36.2v36.2H39.9L39.9,0L39.9,0z"/>
<path id="yellow" class="st4" d="M0,0h36.2v36.2H0C0,36.2,0,0,0,0z"/>
</svg>
