<?xml version="1.0" encoding="utf-8"?>
<!-- Generator: Adobe Illustrator 22.0.1, SVG Export Plug-In . SVG Version: 6.00 Build 0)  -->
<svg version="1.1" id="Layer_1" xmlns="http://www.w3.org/2000/svg" xmlns:xlink="http://www.w3.org/1999/xlink" x="0px" y="0px"
	 viewBox="0 0 500.5 150.7" style="enable-background:new 0 0 500.5 150.7;" xml:space="preserve">
<style type="text/css">
	.st0{clip-path:url(#SVGID_2_);fill:#11172B;}
	.st1{clip-path:url(#SVGID_4_);fill:url(#SVGID_5_);}
	.st2{clip-path:url(#SVGID_7_);fill:url(#SVGID_8_);}
	.st3{clip-path:url(#SVGID_10_);fill:url(#SVGID_11_);}
	.st4{fill:#0D1217;}
</style>
<g>
	<defs>
		<path id="SVGID_1_" d="M75.6,148.4c6.9-1.7,12.7-6,16.9-11.7c0.6-0.9,1.2-1.7,1.8-2.7c6.6-11.1,13.2-19.3,22.7-27.5
			c5.3-4.5,11.2-8.2,16.2-13.1c3.6-3.5,6.3-7.5,7.3-12.8c1.6-9-5-14.5-9.2-21.6c-3.3-5.6-5.5-12-7.3-18.3
			c-2.4-8.4-4.6-16.5-9.2-23.9c-0.7-1.1-1.4-2.2-2.2-3.3c-5.2-7.1-11.9-12.5-21-12.9c-11.1-0.5-23,5.6-31.4,12
			c-6.2,4.7-11.6,10.2-16.8,16c-1.4,1.6-2.9,3.3-4.3,4.9c-4.6,5.4-9.2,10.8-14.2,15.8c-2,2-4,3.9-6.1,5.8C12.5,60.6,2,65.6,0.6,74.7
			C0,78.6,1.4,82.5,3.3,86.1c2.6,5,5.7,10,8.9,14.9c5.5,8.5,11,17.1,17.3,25c1.1,1.4,2.3,2.8,3.5,4.2c4.4,4.9,9.3,9.5,14.8,12.9
			c6.1,3.8,13.3,6.2,20.4,6.2C70.7,149.3,73.2,149,75.6,148.4"/>
	</defs>
	<clipPath id="SVGID_2_">
		<use xlink:href="#SVGID_1_"  style="overflow:visible;"/>
	</clipPath>
	<path class="st0" d="M142.1,150.7H0V0h142.1V150.7z"/>
</g>
<g>
	<defs>
		<path id="SVGID_3_" d="M39.8,43.2C52.1,36.8,66.5,32.3,81.1,31c8.7-0.8,18.1-0.5,26.7,1.3c4.7,1,11,1.7,15,4.1
			c0,0-1.6-6.5-2.6-8.4c-1-2-12.5-10.2-17.5-12.3C85.9,8.8,69,17.9,55.8,25.6c-6.3,3.7-12.3,7.6-18.3,11.6c-1,0.7-3,1.8-4,2.6
			c-2,2.3-7.6,8.1-9.7,10.3C29.3,48.8,34.9,45.8,39.8,43.2"/>
	</defs>
	<clipPath id="SVGID_4_">
		<use xlink:href="#SVGID_3_"  style="overflow:visible;"/>
	</clipPath>
	
		<linearGradient id="SVGID_5_" gradientUnits="userSpaceOnUse" x1="-85.9347" y1="-242.165" x2="-84.2386" y2="-242.165" gradientTransform="matrix(-58.3101 0 0 -58.3101 -4888.0596 -14091.1152)">
		<stop  offset="0" style="stop-color:#6A5BA6"/>
		<stop  offset="9.000000e-03" style="stop-color:#6A5BA6"/>
		<stop  offset="0.993" style="stop-color:#79CED7"/>
		<stop  offset="1" style="stop-color:#79CED7"/>
	</linearGradient>
	<path class="st1" d="M122.8,50.2H23.9V8.9h98.9V50.2z"/>
</g>
<g>
	<defs>
		<path id="SVGID_6_" d="M9.2,89.2c3.1-1.2,6.6-0.7,9.9-1c20.2-1.9,39.3-7.2,57.4-14c14.7-5.5,30.7-10,47.1-10.9
			c4.6-0.3,8.6-0.3,10.9,0.5c-1.9-2.3-2.8-4.3-4-6.2c-3.6-6.1-20.8-5.8-22.5-5.9c-14-0.6-26.8,10.6-37.9,16.6
			c-10.5,5.6-20,12.9-32.4,15.4c-5.9,1.1-11.9,0.7-17.9,0.4c-3.1-0.1-6.3-0.2-9.4,0c-2.1,0.2-7.7,0.9-7.5,1.3c1,2.1,2.9,5.3,2.9,5.3
			S8,89.7,9.2,89.2"/>
	</defs>
	<clipPath id="SVGID_7_">
		<use xlink:href="#SVGID_6_"  style="overflow:visible;"/>
	</clipPath>
	
		<linearGradient id="SVGID_8_" gradientUnits="userSpaceOnUse" x1="-84.6451" y1="-242.8417" x2="-82.9478" y2="-242.8417" gradientTransform="matrix(-77.5932 0 0 -77.5932 -6433.3823 -18771.9121)">
		<stop  offset="0" style="stop-color:#6A5BA6"/>
		<stop  offset="9.000000e-03" style="stop-color:#6A5BA6"/>
		<stop  offset="0.993" style="stop-color:#79CED7"/>
		<stop  offset="1" style="stop-color:#79CED7"/>
	</linearGradient>
	<path class="st2" d="M134.5,90.7H2.8V51.2h131.7V90.7z"/>
</g>
<g>
	<g>
		<defs>
			<path id="SVGID_9_" d="M63.1,136.3c7.8-5.2,13-13.5,21-18.5c7.3-4.5,15-8.6,23.1-11.4c2.1-0.7,4.2-1,6.3-1.4
				c1.1-0.2,2.2-0.4,3.3-0.7c0.7-0.2,4.2-1.1,5.7-2.3c1.1-0.9,3.7-2.8,3.9-3c1.4-0.9,3.5-2.8,4.8-3.9c2.4-2.1,4-3.6,6-6.7
				c-0.9,0-1.8,0-2.7,0.1c-3.2,0.5-7.3,1.8-9.3,2.6c-11.3,4-21,11.3-32.3,15.5c-5,1.8-11.9,6.6-17.4,5.9c-7.5-1-7.3-9.1-13.5-11.6
				c-6.9-2.8-11.7,2.5-17.7,4.6c-6.6,2.3-11.6,2.5-18.6,2.3c-3.4-0.1-9.2-1-10-1.5c1.2,1.8,3.4,5.6,6.1,9.1
				c4.3-2.8,10.4-2.7,15.5-3.8c6.5-1.4,19.5-6,26.1-3.2c14.5,6.1,2,17.4-5.8,22.9c-2.4,1.7-4.9,3.4-7.1,4.7s-7.1,3.9-6.8,4.1
				c0.7,0.5,2.4,1.9,3.4,2.5c0.2,0.1,2.4,1.6,3.2,2C51.9,144.1,58.8,139.3,63.1,136.3"/>
		</defs>
		<clipPath id="SVGID_10_">
			<use xlink:href="#SVGID_9_"  style="overflow:visible;"/>
		</clipPath>
		
			<linearGradient id="SVGID_11_" gradientUnits="userSpaceOnUse" x1="-85.0068" y1="-243.0729" x2="-83.3104" y2="-243.0729" gradientTransform="matrix(-71.6254 0 0 -71.6254 -5951.3428 -17293.5938)">
			<stop  offset="0" style="stop-color:#6A5BA6"/>
			<stop  offset="9.000000e-03" style="stop-color:#6A5BA6"/>
			<stop  offset="0.993" style="stop-color:#79CED7"/>
			<stop  offset="1" style="stop-color:#79CED7"/>
		</linearGradient>
		<path class="st3" d="M137.3,144.7H15.8V88.5h121.5V144.7z"/>
	</g>
</g>
<path class="st4" d="M234,98.1V62.3c0-4.4-2.4-8.3-8.5-8.3c-3.5,0-6.1,1.1-8.4,3.5v40.7h-11.4V62c0-4.9-3.3-8.1-9.5-8.1
	c-3.4,0-5.2,0.5-7.5,1.4v42.8h-11.4V50.4c5.1-2.4,10.5-3.6,18.9-3.6c8.1,0,12.8,2.3,15.7,5.5c3.4-3.1,8.5-5.5,16.2-5.5
	c12,0,17.3,7.5,17.3,15.5v36H234L234,98.1z M263.7,38.9c-3.5,0-6.3-2.5-6.3-5.6c0-3.2,2.8-5.7,6.3-5.7c3.6,0,6.3,2.5,6.3,5.7
	C270,36.4,267.3,38.9,263.7,38.9 M258,47.6h11.4v50.5H258V47.6z M309.9,118.3V96.8c-2.3,1.2-5.5,2.1-9.7,2.1
	c-12,0-20.1-9.6-20.1-24.7c0-15.6,7.3-27.4,24.4-27.4c7.7,0,13.3,1.7,16.7,3.6v67.9L309.9,118.3z M309.9,54.5c-1.5-0.8-3.5-1-5.9-1
	c-8.6,0-12.6,7.3-12.6,20c0,11.8,3.6,18.5,11.9,18.5c2.7,0,5-0.7,6.6-1.6V54.5z M353,99.2c-13.5,0-19.6-5.9-19.6-17V47.6h11.4v35.1
	c0,4.8,2.6,8.5,8.5,8.5c3.3,0,5.6-0.6,7.6-1.7v-42h11.4V95C368.2,97.4,361.8,99.2,353,99.2 M390.7,38.9c-3.5,0-6.3-2.5-6.3-5.6
	c0-3.2,2.8-5.7,6.3-5.7c3.6,0,6.3,2.5,6.3,5.7C397,36.4,394.2,38.9,390.7,38.9 M385,47.6h11.4v50.5H385V47.6z M424.9,46.8
	c14.9,0,23.5,9.5,23.5,25.6c0,16.5-9,26.3-22.1,26.3c-2.8,0-5.3-0.3-7.6-0.9v23.5h-11.4V50.5C411.3,48.2,417,46.8,424.9,46.8
	 M418.7,91.6c1.6,0.5,3.3,0.7,5.1,0.7c9.9,0,13.3-8.5,13.3-19.2c0-11.4-3.7-18.9-12.5-18.9c-2.7,0-4.6,0.3-5.9,1.1V91.6z
	 M479.5,99.1c-14.1,0-21-11.2-21-26.1c0-15.1,6.8-26.2,21-26.2s21,11.1,21,26.2C500.5,87.8,493.7,99.1,479.5,99.1 M479.5,53.9
	c-8.1,0-9.7,9.3-9.7,18.9s1.8,18.5,9.7,18.5c8.1,0,9.7-8.9,9.7-18.5S487.7,53.9,479.5,53.9"/>
</svg>
