<?xml version="1.0" encoding="utf-8"?>
<!-- Generator: Adobe Illustrator 22.0.1, SVG Export Plug-In . SVG Version: 6.00 Build 0)  -->
<svg version="1.1" id="Calque_1" xmlns="http://www.w3.org/2000/svg" xmlns:xlink="http://www.w3.org/1999/xlink" x="0px" y="0px"
	 viewBox="0 0 2902 660.9" style="enable-background:new 0 0 2902 660.9;" xml:space="preserve">
<style type="text/css">
	.st0{fill:#FDB300;}
	.st1{fill:#EA6C00;}
	.st2{fill:#FDAD00;}
	.st3{fill:#FDD231;}
	.st4{fill:#FEEEB7;}
	.st5{fill:#FFAE00;}
	.st6{fill:#EC6C00;}
	.st7{fill:#FFEFB4;}
	.st8{fill:#FED305;}
</style>
<title>logo-light</title>
<desc>Created using Figma</desc>
<g transform="translate(63.385 5.816)">
	<path id="a" d="M984.5,435.7l-0.6-7.5h-62.6l0.3,8.4c3.9,93.3,67.2,155.1,179.9,155.1c107.5,0,180.6-55.4,180.6-139.4
		c0-45.4-15.9-77.5-46.1-99.4c-23.3-16.9-51-26.4-97.1-36.3l-10.1-2.2l-10-2.1c-83.7-17.4-110.3-32.6-110.3-77.6
		c0-46.6,38.4-76.3,102.8-76.3c62.6,0,102.2,38,104.1,97.8l0.2,7.8h62.2l-0.2-8.2c-2.2-93.2-65.1-155.9-166.9-155.9
		c-99.8,0-165.7,59.6-165.7,136.8c0,45.3,15.8,76.8,46.1,97.8c23.1,16,49.8,24.6,96.9,34c4.8,1,9.6,1.9,14.4,2.8
		c44.6,8.7,64.2,14.2,82.2,24.5c22.3,12.9,33.3,31.2,33.3,59.7c0,49.4-41.8,77.6-115.1,77.6C1032.7,533.2,989.2,498.2,984.5,435.7
		L984.5,435.7z M1413,92.6v-8.1h-61.8v499.5h61.8v-94.3l65.1-63.4l116.2,154.5l2.4,3.2h76.9l-9.8-12.9L1521.9,384l130.9-130.4
		l13.8-13.8h-84l-2.4,2.4L1413,410.8V92.6z M2394.7,591.7c84.9,0,144.8-54.4,159.9-131.5l1.9-9.7h-61.9l-1.6,6
		c-12.9,49.1-47.9,77.5-98.3,77.5c-62.9,0-106.4-50.3-106.4-122.6c0-72.9,43.3-123.3,106.4-123.3c50.4,0,85.4,28.3,98.3,77.5l1.6,6
		h61.9l-1.9-9.7c-15.1-77-75-131.5-159.9-131.5c-98.6,0-168.3,80.2-168.3,180.9C2226.4,511.6,2296.2,591.7,2394.7,591.7z M2203,294
		h8v-54.7h-75.3V146h-61.8v93.3h-62.5V294h62.5v192.6c0,63.2,32.8,97.5,93.1,97.5c10.5,0,19.6-0.6,27.2-1.7c4.7-0.7,8-1.3,9.7-1.8
		l5.9-1.6v-57.3l-9.8,2.1c-2.9,0.6-5.7,1.1-8.6,1.5c-6.2,0.9-12.4,1.4-18.6,1.5c-26.4,0-37-12.4-37-43.4V294H2203L2203,294z
		 M2671.9,92.6v-8h-61.7v499.5h61.7V382c0-59.1,35.9-93.8,90.3-93.8c52,0,78.1,30.2,78.1,87.3v208.5h61.7V366.5
		c0-80.7-49.8-134.4-132-134.4c-42.3,0-76.3,15.6-98,37.8L2671.9,92.6L2671.9,92.6z M1937.2,464.9l-1.8,5.8
		c-3.4,9.6-9.6,18-15.7,25.8c-0.4,0.5-0.8,1-1.2,1.5c-0.6,0.8-1.3,1.5-1.9,2.3c-0.3,0.4-0.7,0.8-1.1,1.2c-0.2,0.3-0.5,0.5-0.7,0.7
		c-18.2,19.8-45.1,31.8-76,32c-49.8-0.4-84.3-28.7-97.1-77.5l-1.6-6h-61.9l1.9,9.7c15,76.6,74.3,130.8,158.4,131.4
		c32.2-0.2,61.4-8.3,86.1-22.7c0.6-0.3,1.2-0.7,1.8-1.1c24.9-15,45-36.4,58.8-62.7c0-0.1,0.1-0.2,0.1-0.2c4.9-9.3,9-19.2,12.2-29.6
		l3.3-10.5H1937.2z M1839.2,230.6c-84.4,0.4-144,54.7-159,131.4l-1.9,9.7h61.9l1.6-6c7.6-28.9,22.8-50.6,44.4-63.6
		c15.1-9.1,33.2-13.9,54-13.9c62.9,0,106.4,50.3,106.4,122.6c0,7.5-0.5,14.7-1.3,21.7h57.5l0.5-7.6c0.3-4.1,0.5-8.2,0.6-12.3
		c0.1-2.1,0.1-4,0.1-5.7C2003.8,306.3,1937.5,231.9,1839.2,230.6z M1840.1,230.6c-0.3,0-0.6,0-0.9,0c-84.4,0.4-144,54.7-159,131.4
		l-1.9,9.7h61.9l1.6-6c7.6-28.9,22.8-50.6,44.4-63.6c15.1-9.1,33.2-13.9,54-13.9c62.9,0,106.4,50.3,106.4,122.6
		c0,7.5-0.5,14.7-1.3,21.7c-1.5,11.6-4.1,22.4-7.8,32.4l0,0l-1.8,5.8c-3.4,9.6-9.6,18-15.7,25.8c-0.4,0.5-0.8,1-1.2,1.5
		c-0.6,0.8-1.3,1.5-1.9,2.3c-0.3,0.4-0.7,0.8-1.1,1.2c-0.2,0.3-0.5,0.5-0.7,0.7c-18.2,19.8-45.1,31.8-76,32
		c-49.8-0.4-84.3-28.7-97.1-77.5l-1.6-6h-61.9l1.9,9.7c15,76.6,74.3,130.8,158.4,131.4c0.5,0,1,0,1.5,0c31.6,0,60.2-8.2,84.5-22.7
		c0.6-0.3,1.2-0.7,1.8-1.1c24.6-15.1,44.7-36.7,58.8-62.7c0-0.1,0.1-0.2,0.1-0.2c14.8-27.3,23.1-59.5,23.1-94.2
		C2008.4,310.7,1938.6,230.6,1840.1,230.6z M1730.3,371.7h9.8l1.6-6c7.6-28.9,22.8-50.6,44.4-63.6
		C1759.2,314.9,1739.5,339.5,1730.3,371.7z M1746,357.4l1.8-5.8c3.4-9.6,9.6-18,15.7-25.8c0.4-0.5,0.8-1,1.2-1.5
		c0.6-0.8,1.3-1.5,1.9-2.3c0.3-0.4,0.7-0.8,1.1-1.2c0.2-0.3,0.5-0.5,0.7-0.7c18.2-19.8,45.1-31.8,76-32
		c49.8,0.4,84.3,28.7,97.1,77.5l1.6,6h61.9l-1.9-9.7c-15-76.6-74.3-130.8-158.4-131.4c-32.2,0.2-61.4,8.3-86.1,22.7
		c-0.6,0.3-1.2,0.7-1.8,1.1c-24.9,15-45,36.4-58.8,62.7c0,0.1-0.1,0.2-0.1,0.2c-4.9,9.3-9,19.2-12.2,29.6l-3.3,10.5H1746z
		 M1844,591.7c84.4-0.4,144-54.7,159-131.4l1.9-9.7H1943l-1.6,6c-7.6,28.9-22.8,50.6-44.4,63.6c-15.1,9.1-33.2,13.9-54,13.9
		c-62.9,0-106.4-50.3-106.4-122.6c0-7.5,0.5-14.7,1.3-21.7h-57.5l-0.5,7.6c-0.3,4.1-0.5,8.2-0.6,12.3c-0.1,2.1-0.1,4-0.1,5.7
		C1679.5,516,1745.7,590.4,1844,591.7z M1843.1,591.7c0.3,0,0.6,0,0.9,0c84.4-0.4,144-54.7,159-131.4l1.9-9.7H1943l-1.6,6
		c-7.6,28.9-22.8,50.6-44.4,63.6c-15.1,9.1-33.2,13.9-54,13.9c-62.9,0-106.4-50.3-106.4-122.6c0-7.5,0.5-14.7,1.3-21.7
		c1.5-11.6,4.1-22.4,7.8-32.4l0,0l1.8-5.8c3.4-9.6,9.6-18,15.7-25.8c0.4-0.5,0.8-1,1.2-1.5c0.6-0.8,1.3-1.5,1.9-2.3
		c0.3-0.4,0.7-0.8,1.1-1.2c0.2-0.3,0.5-0.5,0.7-0.7c18.2-19.8,45.1-31.8,76-32c49.8,0.4,84.3,28.7,97.1,77.5l1.6,6h61.9l-1.9-9.7
		c-15-76.6-74.3-130.8-158.4-131.4c-0.5,0-1,0-1.5,0c-31.6,0-60.2,8.2-84.5,22.7c-0.6,0.3-1.2,0.7-1.8,1.1
		c-24.6,15.1-44.7,36.7-58.8,62.7c0,0.1-0.1,0.2-0.1,0.2c-14.8,27.3-23.1,59.5-23.1,94.2C1674.8,511.6,1744.6,591.7,1843.1,591.7z
		 M1952.9,450.6h-9.8l-1.6,6c-7.6,28.9-22.8,50.6-44.4,63.6C1924,507.4,1943.7,482.8,1952.9,450.6z"/>
</g>
<g>
	<path id="b_4_" class="st0" d="M0,235.7"/>
	<path id="b_3_" class="st0" d="M368.5,660.9"/>
	<path id="b_1_" class="st0" d="M368.5,0"/>
</g>
<g transform="translate(0 16.391)">
	<path id="c_2_" class="st1" d="M0,238.2"/>
	<path id="c_1_" class="st1" d="M368.5,660.9"/>
</g>
<g transform="matrix(-1 0 0 1 50.71 16.391)">
	<path id="d_1_" class="st1" d="M368.5,660.9"/>
</g>
<g transform="translate(10.04 16.391)">
	<path id="e_1_" class="st2" d="M364.7,660.9"/>
</g>
<g transform="translate(10.04)">
	<path id="f_1_" class="st3" d="M360.9,0"/>
</g>
<g transform="matrix(-1 0 0 1 40.14 0)">
	<path id="g_1_" class="st3" d="M368.5,0"/>
</g>
<g transform="translate(1052 180)">
	<g transform="translate(-1052 -178.414)">
		<path id="i_1_" class="st2" d="M-1052,58.2"/>
	</g>
</g>
<g transform="translate(1052 180)">
	<g transform="translate(-1041.96 -180)">
		<path id="j_1_" class="st4" d="M-687.3-180"/>
	</g>
</g>
<g id="Page-1">
	<g id="Sketch-Flat-Logo" transform="translate(-9.000000, -28.000000)">
		<g id="Group" transform="translate(9.000000, 28.000000)">
			<g id="Base">
				<polygon id="Polygon" class="st5" points="368.9,660.9 4.5,237.5 162.3,23.6 368.9,1.4 575.4,23.6 733.3,237.5 				"/>
			</g>
			<g id="Bottom-Back" transform="translate(0.000000, 160.000000)">
				<polygon id="Polygon_1_" class="st6" points="368.9,500.9 4.5,77.5 733.3,77.5 				"/>
			</g>
			<g id="Bottom-Mid" transform="translate(100.000000, 160.000000)">
				<polygon id="Polygon_2_" class="st5" points="268.9,500.9 52,77.5 485.8,77.5 				"/>
			</g>
			<g id="Top-Mid" transform="translate(100.000000, 0.000000)">
				<polygon id="Polygon_3_" class="st7" points="268.9,1.4 52,237.5 485.8,237.5 				"/>
			</g>
			<g id="Top-Side-Left" transform="translate(0.000000, 15.000000)">
				<polygon id="Polygon_4_" class="st5" points="162.3,8.6 81.2,116.3 4.5,222.5 153.5,222.5 				"/>
			</g>
			
				<g id="Top-Side-Right" transform="translate(440.500000, 87.500000) scale(-1, 1) translate(-440.500000, -87.500000) translate(387.000000, 15.000000)">
				<polygon id="Polygon_5_" class="st5" points="-81.4,8.6 -162.6,116.3 -239.3,222.5 -90.3,222.5 				"/>
			</g>
			<g id="Top-Left" transform="translate(100.000000, 0.000000)">
				<polygon id="Polygon_6_" class="st8" points="62.3,23.6 52,237.5 268.9,1.4 				"/>
			</g>
			<g id="Top-Right" transform="translate(247.000000, 0.000000)">
				<polygon id="Polygon_7_" class="st8" points="328.4,23.6 338.8,237.5 121.9,1.4 				"/>
			</g>
		</g>
	</g>
</g>
</svg>
