<?xml version="1.0" encoding="utf-8"?>
<!-- Generator: Adobe Illustrator 22.0.1, SVG Export Plug-In . SVG Version: 6.00 Build 0)  -->
<svg version="1.1" id="Calque_1" xmlns="http://www.w3.org/2000/svg" xmlns:xlink="http://www.w3.org/1999/xlink" x="0px" y="0px"
	 viewBox="0 0 152 36" style="enable-background:new 0 0 152 36;" xml:space="preserve">
<style type="text/css">
	.st0{fill:#298BC7;}
</style>
<title>stanfy</title>
<desc>Created with Sketch.</desc>
<g id="_x32_017-Sponsors">
	<g id="stanfy">
		<path class="st0" d="M25.4,0h3.3c3.5,0,6.4,2.9,6.4,6.5v23c0,3.6-2.8,6.5-6.4,6.5H5.9c3.7-1.7,8.6-5.1,8.6-11.6
			c0-2.2-0.5-4.6-1.8-7.4c-0.4-0.8-0.6-1.7-0.6-2.4C12.1,8.7,21.6,2.4,25.4,0z M2.4,34.6c-1.4-1.1-2.5-3-2.4-5.1v-23
			C0,2.9,2.8,0,6.4,0h8.8c-2.1,2.3-6.9,8.5-6.9,14.1c0,1.2,1.1,2.4,1.5,3.6c0.4,1.1,0.6,2.1,0.6,3.1c0,4.6-3.8,9.5-6.8,12.7
			C3.4,33.6,3,34.1,2.4,34.6z M44.3,29.5v-3.3c0.4,0.4,0.8,0.6,1.3,0.8c0.5,0.2,1.1,0.5,1.5,0.6c0.6,0.2,1.1,0.4,1.6,0.4
			c0.6,0.1,1.1,0.1,1.5,0.1c1.6,0,2.8-0.4,3.6-1c0.8-0.6,1.2-1.6,1.2-2.8c0-0.6-0.1-1.2-0.4-1.7c-0.2-0.5-0.6-0.8-1.1-1.3
			c-0.5-0.4-1.1-0.7-1.6-1.1c-0.7-0.4-1.3-0.7-2.1-1.1c-0.8-0.4-1.5-0.8-2.2-1.2c-0.7-0.5-1.3-0.8-1.8-1.4c-0.5-0.5-0.9-1.1-1.2-1.7
			c-0.2-0.6-0.5-1.4-0.5-2.3c0-1.1,0.2-2.1,0.7-2.8c0.5-0.8,1.1-1.4,1.8-1.9c0.7-0.5,1.5-0.8,2.5-1.2c0.9-0.2,1.9-0.4,2.8-0.4
			c2.2,0,3.9,0.2,4.8,0.8v3.1c-1.3-1-3.1-1.4-5.1-1.4c-0.6,0-1.2,0.1-1.8,0.2c-0.6,0.1-1.1,0.4-1.5,0.6c-0.5,0.2-0.8,0.6-1.1,1.1
			c-0.2,0.6-0.4,1.1-0.4,1.8c0,0.6,0.1,1.1,0.4,1.6c0.2,0.5,0.6,0.8,0.9,1.2c0.5,0.4,0.9,0.7,1.5,1.1c0.6,0.4,1.3,0.7,2.1,1.1
			c0.8,0.4,1.5,0.8,2.2,1.3c0.7,0.5,1.4,1,1.9,1.6c0.6,0.6,0.9,1.2,1.3,1.8c0.4,0.7,0.5,1.4,0.5,2.3c0,1.2-0.2,2.2-0.7,2.9
			c-0.5,0.8-1.1,1.4-1.8,1.9c-0.7,0.5-1.6,0.8-2.6,1.1c-0.9,0.2-2,0.4-3.1,0.4c-0.4,0-0.8,0-1.3-0.1c-0.5-0.1-1.1-0.1-1.6-0.2
			s-1.1-0.2-1.5-0.4C45,29.8,44.5,29.6,44.3,29.5L44.3,29.5z M75.7,9.3h-6.5v21.1h-2.6V9.3h-6.5V6.9h15.5V9.3L75.7,9.3z M85.6,6.9
			l8.7,23.6h-2.9L89,23.8h-9.5l-2.2,6.6h-2.9l8.6-23.6H85.6z M80.3,21.3h7.8l-3.5-10c-0.1-0.4-0.2-0.8-0.4-1.6
			c-0.1,0.7-0.2,1.2-0.4,1.6L80.3,21.3z M115.7,30.4h-3.2l-11.7-18.8c-0.2-0.5-0.6-1-0.7-1.4h-0.1c0.1,0.5,0.1,1.6,0.1,3.3v17h-2.6
			V6.9h3.4l11.3,18.5c0.5,0.7,0.8,1.3,0.9,1.6h0.1c-0.1-0.7-0.1-1.8-0.1-3.5V6.9h2.6v23.6H115.7z M133.2,9.3h-8.8v8.2h8.1v2.4h-8.1
			v10.5h-2.6V6.9h11.4V9.3z M152,6.9l-7.4,14.9v8.7H142v-8.7l-7.2-14.9h2.9l5.1,10.6c0,0.1,0.2,0.6,0.6,1.4c0.1-0.4,0.4-0.8,0.6-1.4
			l5.3-10.6L152,6.9L152,6.9z"/>
	</g>
</g>
<rect x="121.7" y="28" class="st0" width="11.4" height="2.4"/>
</svg>
