<?xml version="1.0" encoding="utf-8"?>
<!-- Generator: Adobe Illustrator 22.0.1, SVG Export Plug-In . SVG Version: 6.00 Build 0)  -->
<svg version="1.1" id="Calque_1" xmlns="http://www.w3.org/2000/svg" xmlns:xlink="http://www.w3.org/1999/xlink" x="0px" y="0px"
	 viewBox="0 0 76.6 59.9" style="enable-background:new 0 0 76.6 59.9;" xml:space="preserve">
<style type="text/css">
	.st0{fill:url(#Shape_5_);}
	.st1{fill:url(#Shape_6_);}
	.st2{fill:url(#Shape_7_);}
	.st3{fill:#FFFFFF;}
</style>
<title>jetbrains</title>
<desc>Created with Sketch.</desc>
<g id="_x32_017-Sponsors">
	<g id="jetbrains">
		<g>
			
				<radialGradient id="Shape_5_" cx="-623.7803" cy="403.3292" r="1.0342" gradientTransform="matrix(33.0095 0 0 -33.0095 20635.2637 13344.8252)" gradientUnits="userSpaceOnUse">
				<stop  offset="0" style="stop-color:#F15A22"/>
				<stop  offset="1" style="stop-color:#7E499D"/>
			</radialGradient>
			<path id="Shape" class="st0" d="M14.1,1.7C12.5,0.4,10.3,0,8.4,0.8c-2.2-1.3-5.1-0.9-6.9,1s-2,4.8-0.5,6.9s4.3,3,6.7,2l35.8,22.1
				c0.9,0.5,2.1,0.3,2.8-0.6c0.6-0.9,0.5-2.1-0.3-2.8L14.1,1.7z"/>
			
				<radialGradient id="Shape_6_" cx="-625.1526" cy="403.5871" r="0.9119" gradientTransform="matrix(33.8689 0 0 -33.8689 21195.8477 13727.4902)" gradientUnits="userSpaceOnUse">
				<stop  offset="5.752000e-02" style="stop-color:#FFF33E"/>
				<stop  offset="1" style="stop-color:#EE3D85"/>
			</radialGradient>
			<path id="Shape_1_" class="st1" d="M71.5,41.2c2.8-1,4.7-3.5,5.1-6.4c0.3-2.9-1-5.8-3.5-7.4c-2.5-1.6-5.6-1.7-8.2-0.2
				c0,0-45,25.5-45,25.5c-0.1,0.1-0.2,0.1-0.2,0.2C18,54,17.5,56.2,18.6,58c1,1.7,3.2,2.4,5,1.6C45.4,51,45.4,51,71.5,41.2
				L71.5,41.2z"/>
			
				<radialGradient id="Shape_7_" cx="-610.9921" cy="397.0941" r="1.2799" gradientTransform="matrix(19.8756 0 0 -19.8756 12178.7754 7926.9707)" gradientUnits="userSpaceOnUse">
				<stop  offset="0" style="stop-color:#F15A22"/>
				<stop  offset="1" style="stop-color:#FFF33E"/>
			</radialGradient>
			<path id="Shape_2_" class="st2" d="M37.6,34.5c0.6-1,0.2-2.3-0.8-2.9c-1-0.6-2.3-0.3-2.9,0.7L18.8,53.7c-0.9,1.2-1,2.8-0.3,4.1
				c0.7,1.3,2.1,2.1,3.6,2.1c1.5,0,2.8-0.9,3.5-2.2L37.6,34.5z"/>
			<polygon id="Rectangle-path" points="27.8,18.2 53.4,18.2 53.4,43.8 27.8,43.8 			"/>
			<polygon id="Rectangle-path_1_" class="st3" points="30,39 39.6,39 39.6,40.6 30,40.6 			"/>
			<g id="Group" transform="translate(30.091041, 21.328212)">
				<path id="Shape_3_" class="st3" d="M1.3,4.3c0.4,0,0.8-0.1,1.1-0.4c0.3-0.3,0.4-0.7,0.4-1.2V0.1H1.7v2.6c0,0.1,0,0.3-0.1,0.4
					C1.5,3.2,1.4,3.3,1.2,3.3c-0.3,0-0.5-0.2-0.7-0.4l-0.7,0.7C0.2,4.1,0.7,4.3,1.3,4.3z M6.5,3.3H4.3V2.6h2V1.7h-2V1.1h2.2v-1H3.1
					v4.2h3.4V3.3z M8,4.2h1.2V1.1h1.3v-1H6.7v1H8V4.2z M2.8,7.2c0.4-0.1,0.7-0.5,0.6-0.9v0c0-0.3-0.1-0.5-0.3-0.7
					C2.9,5.3,2.5,5.2,2.1,5.2h-2.1v4.2h2.2c1,0,1.6-0.4,1.6-1.1v0C3.7,7.7,3.3,7.3,2.8,7.2L2.8,7.2z M1,6.1h0.8
					c0.3,0,0.5,0.1,0.5,0.4v0c0,0.2-0.2,0.4-0.6,0.4H1V6.1L1,6.1z M2.5,8.1c0,0.2-0.2,0.4-0.6,0.4H1V7.7h0.9
					C2.3,7.7,2.5,7.8,2.5,8.1L2.5,8.1L2.5,8.1z M8.9,5.2L7.3,8.9l-0.7-1c0.5-0.2,0.9-0.7,0.9-1.3v0c0-0.4-0.1-0.7-0.4-1
					C6.8,5.3,6.3,5.2,5.8,5.2h-2v4.2H5V8.1h0.5l0.8,1.3h2l0.3-0.7h1.6l0.3,0.7h1.2L10,5.2H8.9z M6.4,6.7c0,0.2-0.1,0.3-0.2,0.4
					S5.9,7.2,5.8,7.2H5v-1h0.8c0.2,0,0.3,0,0.4,0.1C6.3,6.4,6.4,6.6,6.4,6.7L6.4,6.7z M9,7.7l0.5-1.2l0.5,1.2H9z"/>
				<polygon id="Rectangle-path_2_" class="st3" points="11.9,5.2 13.1,5.2 13.1,9.4 11.9,9.4 				"/>
				<path id="Shape_4_" class="st3" d="M16.2,7.4l-1.7-2.2h-1.1v4.2h1.1V7.1l1.8,2.3h1V5.2h-1.1V7.4z M19.5,6.8
					c-0.6-0.1-0.7-0.2-0.7-0.4v0c0-0.2,0.1-0.3,0.4-0.3c0.4,0,0.8,0.2,1.2,0.4l0.6-0.8c-0.5-0.4-1.1-0.6-1.7-0.6
					c-1,0-1.6,0.6-1.6,1.3v0c0,0.9,0.7,1.1,1.6,1.3c0.6,0.1,0.7,0.2,0.7,0.4v0c0,0.2-0.2,0.3-0.5,0.3c-0.5,0-1-0.2-1.4-0.5l-0.6,0.8
					c0.5,0.5,1.2,0.7,2,0.7c1,0,1.7-0.5,1.7-1.4v0C21,7.3,20.4,7,19.5,6.8L19.5,6.8z"/>
			</g>
		</g>
	</g>
	<rect x="29.9" y="19.6" width="16.1" height="6.3"/>
</g>
<g>
	<path class="st3" d="M31.4,24.1l-1.5-2.7h1.4l0.4,0.9c0.1,0.3,0.2,0.6,0.4,0.9h0c0.1-0.3,0.3-0.6,0.4-0.9l0.4-0.9h1.4l-1.5,2.7v1.4
		h-1.3V24.1z"/>
	<path class="st3" d="M33.7,21.4H37v0.9h-1.9V23h1.6v0.9h-1.6v0.7h2v0.9h-3.3V21.4z"/>
	<path class="st3" d="M38.3,22.3h-1.3v-0.9h3.9v0.9h-1.3v3.2h-1.3V22.3z"/>
	<path class="st3" d="M41.1,21.4h1.3v4.2h-1.3V21.4z"/>
</g>
</svg>
